<svg xmlns="http://www.w3.org/2000/svg" version="1.1" xmlns:xlink="http://www.w3.org/1999/xlink" width="200" height="200"><svg xmlns="http://www.w3.org/2000/svg" version="1.1" xmlns:xlink="http://www.w3.org/1999/xlink" viewBox="0 0 200 200"><rect width="200" height="200" fill="url('#gradient')"></rect><defs><linearGradient id="SvgjsLinearGradient1001" gradientTransform="rotate(45 0.5 0.5)"><stop offset="0%" stop-color="#472027"></stop><stop offset="100%" stop-color="#192025"></stop></linearGradient></defs><g><g fill="#f3bd7d" transform="matrix(4.032378035440822,0,0,4.032378035440822,8.58508656836527,128.65441955369454)" stroke="#c06a3e" stroke-width="0.2"><path d="M12.24-14.22L12.24-11.57L7.97-11.57L7.97 0L4.54 0L4.54-11.57L0.35-11.57L0.35-14.22L12.24-14.22ZM17.30-7.40L17.30-4.85L11.44-4.85L11.44-7.40L17.30-7.40ZM24.70 0L20.02 0L20.02-14.22L24.60-14.22Q26.48-14.22 27.99-13.36Q29.49-12.51 30.34-10.95Q31.18-9.39 31.19-7.46L31.19-7.46L31.19-6.81Q31.19-4.85 30.37-3.31Q29.54-1.76 28.04-0.88Q26.54-0.01 24.70 0L24.70 0ZM24.60-11.57L23.45-11.57L23.45-2.64L24.64-2.64Q26.11-2.64 26.90-3.69Q27.70-4.74 27.70-6.81L27.70-6.81L27.70-7.42Q27.70-9.48 26.90-10.53Q26.11-11.57 24.60-11.57L24.60-11.57ZM44.99-7.47L44.99-6.82Q44.99-4.74 44.22-3.13Q43.45-1.53 42.03-0.67Q40.61 0.20 38.79 0.20Q36.97 0.20 35.57-0.64Q34.16-1.47 33.37-3.03Q32.59-4.58 32.55-6.59L32.55-6.59L32.55-7.39Q32.55-9.48 33.32-11.08Q34.08-12.68 35.51-13.54Q36.94-14.41 38.77-14.41L38.77-14.41Q40.58-14.41 41.99-13.55Q43.41-12.70 44.19-11.11Q44.98-9.52 44.99-7.47L44.99-7.47ZM41.50-6.76L41.50-7.41Q41.50-9.53 40.80-10.63Q40.09-11.73 38.77-11.73L38.77-11.73Q36.19-11.73 36.04-7.86L36.04-7.86L36.04-6.82Q36.04-4.73 36.73-3.60Q37.42-2.48 38.79-2.48L38.79-2.48Q40.09-2.48 40.79-3.58Q41.49-4.69 41.50-6.76L41.50-6.76Z"></path></g></g></svg><style>@media (prefers-color-scheme: light) { :root { filter: none; } }
@media (prefers-color-scheme: dark) { :root { filter: none; } }
</style></svg>